<svg width="50" height="51" viewBox="0 0 50 51" fill="none" xmlns="http://www.w3.org/2000/svg">
<g clip-path="url(#clip0_175_385)">
<path d="M25 50.5459C38.8071 50.5459 50 39.353 50 25.5459C50 11.7388 38.8071 0.545898 25 0.545898C11.1929 0.545898 0 11.7388 0 25.5459C0 39.353 11.1929 50.5459 25 50.5459Z" fill="#F0F0F0"/>
<path d="M49.9996 25.5457C49.9996 15.6342 44.2315 7.07012 35.8691 3.02637V48.0649C44.2315 44.0213 49.9996 35.4572 49.9996 25.5457V25.5457Z" fill="#D80027"/>
<path d="M0 25.5457C0 35.4572 5.76807 44.0213 14.1305 48.065V3.02637C5.76807 7.07012 0 15.6342 0 25.5457Z" fill="#D80027"/>
<path d="M29.3481 28.8061L33.6959 26.6321L31.5221 25.5452V23.3713L27.1742 25.5452L29.3481 21.1974H27.1742L25.0003 17.9365L22.8264 21.1974H20.6524L22.8264 25.5452L18.4785 23.3713V25.5452L16.3047 26.6321L20.6524 28.8061L19.5655 30.98H23.9134V34.2408H26.0872V30.98H30.4351L29.3481 28.8061Z" fill="#D80027"/>
</g>
<defs>
<clipPath id="clip0_175_385">
<rect width="50" height="50" fill="white" transform="translate(0 0.545898)"/>
</clipPath>
</defs>
</svg>
