<svg width="50" height="51" viewBox="0 0 50 51" fill="none" xmlns="http://www.w3.org/2000/svg">
<g clip-path="url(#clip0_175_385)">
<path d="M25 50.5459C38.8071 50.5459 50 39.353 50 25.5459C50 11.7388 38.8071 0.545898 25 0.545898C11.1929 0.545898 0 11.7388 0 25.5459C0 39.353 11.1929 50.5459 25 50.5459Z" fill="#F0F0F0"/>
<path d="M23.9131 25.5462H50C50 23.2897 49.6992 21.1038 49.1388 19.0244H23.9131V25.5462Z" fill="#D80027"/>
<path d="M23.9131 12.5022H46.3307C44.8003 10.005 42.8436 7.79766 40.5621 5.98047H23.9131V12.5022Z" fill="#D80027"/>
<path d="M24.9996 50.5461C30.8833 50.5461 36.2912 48.5125 40.5617 45.1113H9.4375C13.708 48.5125 19.1159 50.5461 24.9996 50.5461Z" fill="#D80027"/>
<path d="M3.66943 38.5892H46.3308C47.5594 36.5844 48.5122 34.393 49.1389 32.0674H0.861328C1.48799 34.393 2.44082 36.5844 3.66943 38.5892V38.5892Z" fill="#D80027"/>
<path d="M11.5805 4.45H13.8587L11.7396 5.98955L12.549 8.48066L10.43 6.94111L8.31094 8.48066L9.01016 6.32861C7.14434 7.88281 5.50898 9.70371 4.16133 11.7326H4.89131L3.54238 12.7126C3.33223 13.0632 3.13066 13.4193 2.9375 13.7808L3.58164 15.7633L2.37988 14.8901C2.08115 15.523 1.80791 16.1702 1.5623 16.8309L2.27197 19.0152H4.89131L2.77217 20.5548L3.58164 23.0459L1.4626 21.5063L0.193262 22.4286C0.0662109 23.4499 0 24.4901 0 25.5459H25C25 11.7389 25 10.1111 25 0.545898C20.0613 0.545898 15.4575 1.97852 11.5805 4.45V4.45ZM12.549 23.0459L10.43 21.5063L8.31094 23.0459L9.12041 20.5548L7.00127 19.0152H9.62061L10.43 16.5241L11.2394 19.0152H13.8587L11.7396 20.5548L12.549 23.0459ZM11.7396 13.2722L12.549 15.7633L10.43 14.2237L8.31094 15.7633L9.12041 13.2722L7.00127 11.7326H9.62061L10.43 9.2415L11.2394 11.7326H13.8587L11.7396 13.2722ZM21.5164 23.0459L19.3974 21.5063L17.2783 23.0459L18.0878 20.5548L15.9687 19.0152H18.588L19.3974 16.5241L20.2067 19.0152H22.8261L20.7069 20.5548L21.5164 23.0459ZM20.7069 13.2722L21.5164 15.7633L19.3974 14.2237L17.2783 15.7633L18.0878 13.2722L15.9687 11.7326H18.588L19.3974 9.2415L20.2067 11.7326H22.8261L20.7069 13.2722ZM20.7069 5.98955L21.5164 8.48066L19.3974 6.94111L17.2783 8.48066L18.0878 5.98955L15.9687 4.45H18.588L19.3974 1.95889L20.2067 4.45H22.8261L20.7069 5.98955Z" fill="#0052B4"/>
</g>
<defs>
<clipPath id="clip0_175_385">
<rect width="50" height="50" fill="white" transform="translate(0 0.545898)"/>
</clipPath>
</defs>
</svg>
