<svg width="50" height="51" viewBox="0 0 50 51" fill="none" xmlns="http://www.w3.org/2000/svg">
<g clip-path="url(#clip0_175_385)">
<path d="M25 50.5459C38.8071 50.5459 50 39.353 50 25.5459C50 11.7388 38.8071 0.545898 25 0.545898C11.1929 0.545898 0 11.7388 0 25.5459C0 39.353 11.1929 50.5459 25 50.5459Z" fill="#6DA544"/>
<path d="M14.1299 30.4375C14.1299 32.2384 15.5898 33.6983 17.3907 33.6983H27.1733C27.1733 35.1991 28.3899 36.4157 29.8907 36.4157H33.1516C34.6523 36.4157 35.8689 35.1991 35.8689 33.6983V30.4375H14.1299Z" fill="#F0F0F0"/>
<path d="M36.1407 14.6768V22.2854C36.1407 23.4842 35.1655 24.4594 33.9668 24.4594V27.7202C36.9636 27.7202 39.4016 25.2821 39.4016 22.2854V14.6768H36.1407Z" fill="#F0F0F0"/>
<path d="M12.7716 22.2854C12.7716 23.4842 11.7964 24.4594 10.5977 24.4594V27.7202C13.5944 27.7202 16.0324 25.2821 16.0324 22.2854V14.6768H12.7716V22.2854Z" fill="#F0F0F0"/>
<path d="M31.25 14.6768H34.5108V22.2854H31.25V14.6768Z" fill="#F0F0F0"/>
<path d="M26.3587 19.0246C26.3587 19.3243 26.1148 19.5681 25.8152 19.5681C25.5156 19.5681 25.2718 19.3242 25.2718 19.0246V14.6768H22.0109V19.0246C22.0109 19.3243 21.7671 19.5681 21.4675 19.5681C21.1679 19.5681 20.924 19.3242 20.924 19.0246V14.6768H17.6631V19.0246C17.6631 21.1224 19.3697 22.829 21.4675 22.829C22.2754 22.829 23.0246 22.5751 23.6414 22.1438C24.2581 22.575 25.0074 22.829 25.8153 22.829C25.978 22.829 26.138 22.8176 26.2953 22.7976C26.0643 23.7496 25.2068 24.4594 24.1849 24.4594V27.7202C27.1816 27.7202 29.6196 25.2821 29.6196 22.2854V19.0246V14.6768H26.3588V19.0246H26.3587Z" fill="#F0F0F0"/>
<path d="M17.6631 24.459H22.5544V27.7198H17.6631V24.459Z" fill="#F0F0F0"/>
</g>
<defs>
<clipPath id="clip0_175_385">
<rect width="50" height="50" fill="white" transform="translate(0 0.545898)"/>
</clipPath>
</defs>
</svg>
