<svg width="50" height="51" viewBox="0 0 50 51" fill="none" xmlns="http://www.w3.org/2000/svg">
<g clip-path="url(#clip0_175_385)">
<path d="M25 50.5459C38.8071 50.5459 50 39.353 50 25.5459C50 11.7388 38.8071 0.545898 25 0.545898C11.1929 0.545898 0 11.7388 0 25.5459C0 39.353 11.1929 50.5459 25 50.5459Z" fill="#F0F0F0"/>
<path d="M49.9996 25.5457C49.9996 15.6342 44.2315 7.07012 35.8691 3.02637V48.0649C44.2315 44.0213 49.9996 35.4572 49.9996 25.5457V25.5457Z" fill="#D80027"/>
<path d="M0 25.5457C0 35.4572 5.76807 44.0213 14.1305 48.065V3.02637C5.76807 7.07012 0 15.6342 0 25.5457Z" fill="#6DA544"/>
<path d="M18.4785 25.546C18.4785 29.1479 21.3984 32.0678 25.0003 32.0678C28.6021 32.0678 31.5221 29.1479 31.5221 25.546V23.3721H18.4785V25.546Z" fill="#6DA544"/>
<path d="M33.6961 21.1983H27.1743C27.1743 19.9978 26.201 19.0244 25.0004 19.0244C23.7998 19.0244 22.8265 19.9978 22.8265 21.1983H16.3047C16.3047 22.399 17.3505 23.3723 18.551 23.3723H18.4786C18.4786 24.5729 19.4519 25.5462 20.6525 25.5462C20.6525 26.7469 21.6258 27.7201 22.8265 27.7201H27.1743C28.375 27.7201 29.3482 26.7469 29.3482 25.5462C30.5489 25.5462 31.5222 24.5729 31.5222 23.3723H31.4497C32.6504 23.3723 33.6961 22.399 33.6961 21.1983Z" fill="#FF9811"/>
</g>
<defs>
<clipPath id="clip0_175_385">
<rect width="50" height="50" fill="white" transform="translate(0 0.545898)"/>
</clipPath>
</defs>
</svg>
