<svg width="50" height="51" viewBox="0 0 50 51" fill="none" xmlns="http://www.w3.org/2000/svg">
<g clip-path="url(#clip0_175_385)">
<path d="M0 25.5463C0 28.6043 0.550098 31.5336 1.55498 34.2419L25 35.3289L48.445 34.242C49.45 31.5336 50 28.6043 50 25.5463C50 22.4883 49.45 19.559 48.445 16.8507L25 15.7637L1.55498 16.8506C0.550098 19.559 0 22.4883 0 25.5463H0Z" fill="#FFDA44"/>
<path d="M24.9997 0.545898C14.2506 0.545898 5.08701 7.33027 1.55469 16.8503H48.4448C44.9124 7.33027 35.7488 0.545898 24.9997 0.545898V0.545898Z" fill="#D80027"/>
<path d="M48.4447 34.2412H1.55469C5.08701 43.7611 14.2506 50.5456 24.9997 50.5456C35.7488 50.5456 44.9124 43.7611 48.4447 34.2412Z" fill="#496E2D"/>
<path d="M24.9994 16.8506L27.1576 23.4932H34.1428L28.4921 27.5989L30.6503 34.2418L24.9994 30.1363L19.3485 34.2418L21.5071 27.5989L15.8564 23.4932H22.8412L24.9994 16.8506Z" fill="black"/>
</g>
<defs>
<clipPath id="clip0_175_385">
<rect width="50" height="50" fill="white" transform="translate(0 0.545898)"/>
</clipPath>
</defs>
</svg>
