<svg width="50" height="51" viewBox="0 0 50 51" fill="none" xmlns="http://www.w3.org/2000/svg">
<g clip-path="url(#clip0_175_385)">
<path d="M0 25.5463C0 28.6043 0.550098 31.5336 1.55498 34.2419L25 36.4158L48.445 34.2419C49.4499 31.5336 50 28.6043 50 25.5463C50 22.4883 49.4499 19.559 48.445 16.8507L25 14.6768L1.55498 16.8507C0.550098 19.559 0 22.4883 0 25.5463H0Z" fill="#FFDA44"/>
<path d="M48.4447 16.8503C44.9124 7.33037 35.7488 0.545898 24.9997 0.545898C14.2506 0.545898 5.08701 7.33037 1.55469 16.8503H48.4447Z" fill="#D80027"/>
<path d="M1.55469 34.2412C5.08701 43.7611 14.2506 50.5456 24.9997 50.5456C35.7488 50.5456 44.9124 43.7611 48.4447 34.2412H1.55469Z" fill="#D80027"/>
</g>
<defs>
<clipPath id="clip0_175_385">
<rect width="50" height="50" fill="white" transform="translate(0 0.545898)"/>
</clipPath>
</defs>
</svg>
