<svg width="50" height="51" viewBox="0 0 50 51" fill="none" xmlns="http://www.w3.org/2000/svg">
<g clip-path="url(#clip0_175_385)">
<path d="M25 50.5459C38.8071 50.5459 50 39.353 50 25.5459C50 11.7388 38.8071 0.545898 25 0.545898C11.1929 0.545898 0 11.7388 0 25.5459C0 39.353 11.1929 50.5459 25 50.5459Z" fill="#F0F0F0"/>
<path d="M19.5655 22.2851H49.7886C48.1906 10.0187 37.702 0.545898 25.0002 0.545898C23.1335 0.545898 21.3154 0.752246 19.5654 1.14014V22.2851H19.5655Z" fill="#D80027"/>
<path d="M13.0437 22.2853V3.58594C6.1792 7.33145 1.26494 14.2017 0.211914 22.2854H13.0437V22.2853Z" fill="#D80027"/>
<path d="M13.0437 28.8066H0.211914C1.26494 36.8903 6.1792 43.7605 13.0437 47.506L13.0437 28.8066Z" fill="#D80027"/>
<path d="M19.5654 28.8067V49.9516C21.3154 50.3395 23.1335 50.5458 25.0002 50.5458C37.702 50.5458 48.1906 41.0729 49.7886 28.8066H19.5654V28.8067Z" fill="#D80027"/>
</g>
<defs>
<clipPath id="clip0_175_385">
<rect width="50" height="50" fill="white" transform="translate(0 0.545898)"/>
</clipPath>
</defs>
</svg>
