<svg width="50" height="51" viewBox="0 0 50 51" fill="none" xmlns="http://www.w3.org/2000/svg">
<g clip-path="url(#clip0_175_385)">
<path d="M25 50.5459C38.8071 50.5459 50 39.353 50 25.5459C50 11.7388 38.8071 0.545898 25 0.545898C11.1929 0.545898 0 11.7388 0 25.5459C0 39.353 11.1929 50.5459 25 50.5459Z" fill="#D80027"/>
<path d="M24.9995 37.5029C31.6029 37.5029 36.9561 32.1498 36.9561 25.5464C36.9561 18.943 31.6029 13.5898 24.9995 13.5898C18.3961 13.5898 13.043 18.943 13.043 25.5464C13.043 32.1498 18.3961 37.5029 24.9995 37.5029Z" fill="#F0F0F0"/>
<path d="M26.4736 20.9746L28.5248 23.8013L31.8468 22.7241L29.7924 25.5483L31.8434 28.3749L28.5225 27.2937L26.4681 30.1179L26.4702 26.6256L23.1494 25.5443L26.4715 24.4672L26.4736 20.9746Z" fill="#D80027"/>
<path d="M27.7177 32.6115C23.8157 32.6115 20.6524 29.4482 20.6524 25.5463C20.6524 21.6443 23.8157 18.4811 27.7177 18.4811C28.9343 18.4811 30.0791 18.7887 31.0785 19.3303C29.5106 17.797 27.3666 16.8506 25.0003 16.8506C20.1979 16.8506 16.3047 20.7438 16.3047 25.5462C16.3047 30.3486 20.1979 34.2418 25.0003 34.2418C27.3666 34.2418 29.5107 33.2954 31.0785 31.7621C30.0791 32.3039 28.9343 32.6115 27.7177 32.6115Z" fill="#D80027"/>
</g>
<defs>
<clipPath id="clip0_175_385">
<rect width="50" height="50" fill="white" transform="translate(0 0.545898)"/>
</clipPath>
</defs>
</svg>
