<svg width="50" height="51" viewBox="0 0 50 51" fill="none" xmlns="http://www.w3.org/2000/svg">
<g clip-path="url(#clip0_175_385)">
<path d="M35.87 3.02656C32.5833 1.4373 28.896 0.545898 25.0005 0.545898C21.105 0.545898 17.4177 1.4373 14.131 3.02656L11.957 25.5459L14.131 48.0652C17.4177 49.6545 21.105 50.5459 25.0005 50.5459C28.896 50.5459 32.5833 49.6545 35.87 48.0652L38.0439 25.5459L35.87 3.02656Z" fill="#FFDA44"/>
<path d="M24.9994 16.8506L27.1576 23.4932H34.1428L28.492 27.5989L30.6503 34.2418L24.9994 30.1363L19.3485 34.2418L21.5072 27.5989L15.8564 23.4932H22.8411L24.9994 16.8506Z" fill="#496E2D"/>
<path d="M14.1305 3.02734C5.76816 7.071 0 15.6344 0 25.5458C0 35.4572 5.76816 44.0206 14.1305 48.0643V3.02734Z" fill="#496E2D"/>
<path d="M35.8691 3.02734V48.0643C44.2314 44.0206 49.9996 35.4572 49.9996 25.5458C49.9996 15.6344 44.2314 7.071 35.8691 3.02734Z" fill="#D80027"/>
</g>
<defs>
<clipPath id="clip0_175_385">
<rect width="50" height="50" fill="white" transform="translate(0 0.545898)"/>
</clipPath>
</defs>
</svg>
