<svg width="50" height="51" viewBox="0 0 50 51" fill="none" xmlns="http://www.w3.org/2000/svg">
<g clip-path="url(#clip0_175_385)">
<path d="M25 50.5459C38.8071 50.5459 50 39.353 50 25.5459C50 11.7388 38.8071 0.545898 25 0.545898C11.1929 0.545898 0 11.7388 0 25.5459C0 39.353 11.1929 50.5459 25 50.5459Z" fill="#F0F0F0"/>
<path d="M49.9996 25.5459C49.9996 11.7389 38.8066 0.545898 24.9996 0.545898C20.109 0.545898 15.5471 1.95166 11.6937 4.379L17.1735 6.70723L9.78223 9.84766L17.1735 12.988L9.78223 16.1282L17.1735 19.2684L9.78223 22.4081L17.1735 25.5477L9.78223 28.6879L17.1735 31.8279L9.78223 34.9677L17.1735 38.1077L9.78223 41.2479L17.1735 44.3877L11.6962 46.7146C15.549 49.1408 20.11 50.5459 24.9996 50.5459C38.8066 50.5459 49.9996 39.3529 49.9996 25.5459Z" fill="#751A46"/>
</g>
<defs>
<clipPath id="clip0_175_385">
<rect width="50" height="50" fill="white" transform="translate(0 0.545898)"/>
</clipPath>
</defs>
</svg>
