<svg width="50" height="51" viewBox="0 0 50 51" fill="none" xmlns="http://www.w3.org/2000/svg">
<g clip-path="url(#clip0_175_385)">
<path d="M25 50.5459C38.8071 50.5459 50 39.353 50 25.5459C50 11.7388 38.8071 0.545898 25 0.545898C11.1929 0.545898 0 11.7388 0 25.5459C0 39.353 11.1929 50.5459 25 50.5459Z" fill="#F0F0F0"/>
<path d="M24.9997 0.545898C14.2506 0.545898 5.08701 7.33027 1.55469 16.8503H48.4448C44.9124 7.33027 35.7488 0.545898 24.9997 0.545898V0.545898Z" fill="#A2001D"/>
<path d="M24.9997 50.5456C35.7488 50.5456 44.9124 43.7612 48.4447 34.2412H1.55469C5.08701 43.7612 14.2506 50.5456 24.9997 50.5456Z" fill="#0052B4"/>
</g>
<defs>
<clipPath id="clip0_175_385">
<rect width="50" height="50" fill="white" transform="translate(0 0.545898)"/>
</clipPath>
</defs>
</svg>
