<svg width="50" height="51" viewBox="0 0 50 51" fill="none" xmlns="http://www.w3.org/2000/svg">
<g clip-path="url(#clip0_175_385)">
<path d="M0 25.5459C0 11.7389 11.193 0.545898 25 0.545898C38.807 0.545898 50 11.7389 50 25.5459L25 27.7198L0 25.5459Z" fill="#FFDA44"/>
<path d="M3.3457 38.0455C7.66846 45.5178 15.747 50.5455 25.0004 50.5455C34.2538 50.5455 42.3323 45.5178 46.6551 38.0455L25.0004 36.415L3.3457 38.0455Z" fill="#D80027"/>
<path d="M46.6547 38.0459C48.7818 34.3688 50 30.0997 50 25.5459H0C0 30.0997 1.21816 34.3688 3.34531 38.0459H46.6547Z" fill="#0052B4"/>
<path d="M25.0003 34.2418C29.8027 34.2418 33.6959 30.3486 33.6959 25.5462C33.6959 20.7437 29.8027 16.8506 25.0003 16.8506C20.1978 16.8506 16.3047 20.7437 16.3047 25.5462C16.3047 30.3486 20.1978 34.2418 25.0003 34.2418Z" fill="#FFDA44"/>
<path d="M25.0002 30.981C22.0034 30.981 19.5654 28.5429 19.5654 25.5462V22.2854C19.5654 19.2886 22.0035 16.8506 25.0002 16.8506C27.9969 16.8506 30.435 19.2887 30.435 22.2854V25.5462C30.435 28.543 27.997 30.981 25.0002 30.981Z" fill="#338AF3"/>
<path d="M33.6961 12.5021H27.1743C27.1743 11.3015 26.201 10.3281 25.0004 10.3281C23.7998 10.3281 22.8265 11.3015 22.8265 12.5021H16.3047C16.3047 13.7027 17.3505 14.676 18.551 14.676H18.4786C18.4786 15.8767 19.4519 16.8499 20.6525 16.8499C20.6525 18.0506 21.6258 19.0238 22.8265 19.0238H27.1743C28.375 19.0238 29.3482 18.0506 29.3482 16.8499C30.5489 16.8499 31.5222 15.8767 31.5222 14.676H31.4498C32.6504 14.676 33.6961 13.7026 33.6961 12.5021V12.5021Z" fill="black"/>
</g>
<defs>
<clipPath id="clip0_175_385">
<rect width="50" height="50" fill="white" transform="translate(0 0.545898)"/>
</clipPath>
</defs>
</svg>
