<svg width="50" height="51" viewBox="0 0 50 51" fill="none" xmlns="http://www.w3.org/2000/svg">
<g clip-path="url(#clip0_175_385)">
<path d="M25 50.5459C38.8071 50.5459 50 39.353 50 25.5459C50 11.7388 38.8071 0.545898 25 0.545898C11.1929 0.545898 0 11.7388 0 25.5459C0 39.353 11.1929 50.5459 25 50.5459Z" fill="#F0F0F0"/>
<path d="M50 25.5459C50 39.3529 38.807 50.5459 25 50.5459C11.193 50.5459 0 39.3529 0 25.5459" fill="#496E2D"/>
<path d="M43.2628 17.9431C42.3688 15.4076 39.953 13.5898 37.1117 13.5898H31.5215C27.9196 13.5898 24.9997 16.5098 24.9997 20.1116C24.9997 21.2884 25.313 22.4193 25.8582 23.3725C23.7823 23.3555 21.8611 23.3868 20.6519 23.3725C20.6519 20.8572 20.6519 17.6531 20.6519 16.9827L20.9087 16.7259C22.0616 15.5729 21.6771 13.6515 21.6771 13.6515C21.6771 13.6515 19.7559 13.2672 18.6029 14.4201L17.2593 15.7638H15.7605C12.4588 15.7638 9.78232 18.4403 9.78232 21.742H14.1302V26.6333C14.1302 27.3487 14.2744 28.0303 14.5351 28.651L13.0432 29.8941H10.8692V27.7202H8.69531V32.0681H18.4779V36.4159H16.304V38.5898H20.6519V34.242L22.6445 31.8507H27.3548L29.3475 34.242V36.4159H27.1735V38.5898H35.8691V26.6332C35.8691 24.8323 37.3291 23.3724 39.13 23.3724C39.1763 23.3724 39.2222 23.374 39.2681 23.3759C39.178 23.0274 39.13 22.6621 39.13 22.2854C39.1302 19.9564 40.9615 18.0553 43.2628 17.9431V17.9431ZM31.5215 36.4158V31.8506H31.7026L33.6953 34.2419V36.4158H31.5215Z" fill="#D80027"/>
</g>
<defs>
<clipPath id="clip0_175_385">
<rect width="50" height="50" fill="white" transform="translate(0 0.545898)"/>
</clipPath>
</defs>
</svg>
