<svg width="50" height="51" viewBox="0 0 50 51" fill="none" xmlns="http://www.w3.org/2000/svg">
<g clip-path="url(#clip0_175_385)">
<path d="M50 25.5459C50 39.3529 38.807 50.5459 25 50.5459C11.193 50.5459 0 39.3529 0 25.5459C0 25.5518 25 0.54873 25 0.545898C38.807 0.545898 50 11.7389 50 25.5459Z" fill="#0052B4"/>
<path d="M24.9336 25.5454H25.0005C25.0005 25.5228 25.0005 25.5011 25.0005 25.4785C24.9782 25.5009 24.956 25.5231 24.9336 25.5454Z" fill="#F0F0F0"/>
<path d="M25 13.5894C25 9.19043 25 6.30791 25 0.545898H24.9958C11.1906 0.548145 0 11.74 0 25.5458H13.0435V18.2009L20.3884 25.5458H24.9332C24.9556 25.5235 24.9778 25.5013 25.0001 25.4789C25.0001 23.7946 25.0001 22.2918 25.0001 20.9344L17.6551 13.5894H25Z" fill="#F0F0F0"/>
<path d="M12.6479 3.80664C8.73779 6.03311 5.48721 9.28369 3.26074 13.1938V25.5458H9.78252V10.3285V10.3284H24.9999C24.9999 8.27148 24.9999 6.31191 24.9999 3.80664H12.6479Z" fill="#D80027"/>
<path d="M24.9994 22.4719L16.1173 13.5899H13.043C13.043 13.5898 13.043 13.5899 13.043 13.5899L24.9993 25.5462H24.9994C24.9994 25.5462 24.9994 23.4266 24.9994 22.4719Z" fill="#D80027"/>
<path d="M15.0774 29.8936L16.4495 32.7625L19.5479 32.0464L18.1604 34.9079L20.652 36.8838L17.5497 37.583L17.5584 40.7631L15.0774 38.7735L12.5966 40.7631L12.6053 37.583L9.50293 36.8838L11.9946 34.9079L10.6069 32.0464L13.7055 32.7625L15.0774 29.8936Z" fill="#F0F0F0"/>
<path d="M37.4298 35.3281L38.1158 36.7626L39.665 36.4045L38.9712 37.8353L40.2171 38.8232L38.6659 39.1728L38.6702 40.7629L37.4298 39.7681L36.1894 40.7629L36.1937 39.1728L34.6426 38.8232L35.8884 37.8353L35.1946 36.4045L36.7438 36.7626L37.4298 35.3281Z" fill="#F0F0F0"/>
<path d="M31.048 20.1104L31.734 21.5449L33.2832 21.1867L32.5895 22.6175L33.8353 23.6055L32.2842 23.9551L32.2884 25.5451L31.048 24.5503L29.8076 25.5451L29.8118 23.9551L28.2607 23.6055L29.5065 22.6175L28.8128 21.1867L30.362 21.5449L31.048 20.1104Z" fill="#F0F0F0"/>
<path d="M37.4298 11.415L38.1158 12.8496L39.665 12.4915L38.9713 13.9223L40.217 14.9102L38.6659 15.2599L38.6702 16.8499L37.4298 15.8551L36.1894 16.8499L36.1937 15.2599L34.6426 14.9102L35.8883 13.9223L35.1946 12.4915L36.7438 12.8496L37.4298 11.415Z" fill="#F0F0F0"/>
<path d="M43.0041 17.9365L43.69 19.3711L45.2393 19.0129L44.5455 20.4437L45.7913 21.4316L44.2401 21.7813L44.2444 23.3713L43.0041 22.3766L41.7637 23.3713L41.7679 21.7813L40.2168 21.4316L41.4626 20.4437L40.7688 19.0129L42.318 19.3711L43.0041 17.9365Z" fill="#F0F0F0"/>
<path d="M39.0183 25.5459L39.5578 27.2066H41.3041L39.8913 28.2331L40.4311 29.8938L39.0183 28.8674L37.6056 29.8938L38.1451 28.2331L36.7324 27.2066H38.4786L39.0183 25.5459Z" fill="#F0F0F0"/>
</g>
<defs>
<clipPath id="clip0_175_385">
<rect width="50" height="50" fill="white" transform="translate(0 0.545898)"/>
</clipPath>
</defs>
</svg>
