<svg width="50" height="51" viewBox="0 0 50 51" fill="none" xmlns="http://www.w3.org/2000/svg">
<g clip-path="url(#clip0_175_385)">
<path d="M25 50.5459C38.8071 50.5459 50 39.353 50 25.5459C50 11.7388 38.8071 0.545898 25 0.545898C11.1929 0.545898 0 11.7388 0 25.5459C0 39.353 11.1929 50.5459 25 50.5459Z" fill="#F0F0F0"/>
<path d="M33.6959 25.5462C33.6959 27.7201 29.8027 33.1549 25.0003 33.1549C20.1979 33.1549 16.3047 27.7201 16.3047 25.5462C16.3047 20.7437 20.1979 16.8506 25.0003 16.8506C29.8027 16.8506 33.6959 20.7437 33.6959 25.5462Z" fill="#D80027"/>
<path d="M33.6959 25.5459C33.6959 30.3484 29.8027 34.2415 25.0003 34.2415C20.1979 34.2415 16.3047 30.3484 16.3047 25.5459" fill="#0052B4"/>
<path d="M34.2158 33.2324L36.5212 30.927L38.0582 32.464L35.7528 34.7694L34.2158 33.2324Z" fill="black"/>
<path d="M30.373 37.0752L32.6785 34.7698L34.2154 36.3067L31.91 38.6122L30.373 37.0752Z" fill="black"/>
<path d="M38.8271 37.8428L41.1326 35.5374L42.6695 37.0743L40.3641 39.3797L38.8271 37.8428Z" fill="black"/>
<path d="M34.9844 41.6855L37.2898 39.3801L38.8268 40.9171L36.5213 43.2225L34.9844 41.6855Z" fill="black"/>
<path d="M36.5215 35.5381L38.8269 33.2327L40.3639 34.7696L38.0584 37.075L36.5215 35.5381Z" fill="black"/>
<path d="M32.6797 39.3799L34.9851 37.0745L36.5221 38.6114L34.2167 40.9168L32.6797 39.3799Z" fill="black"/>
<path d="M38.8379 17.8643L32.6901 11.7165L34.2271 10.1795L40.3749 16.3273L38.8379 17.8643Z" fill="black"/>
<path d="M32.6885 16.3271L30.3831 14.0217L31.92 12.4848L34.2254 14.7903L32.6885 16.3271Z" fill="black"/>
<path d="M36.5312 20.1709L34.2258 17.8655L35.7627 16.3286L38.0681 18.634L36.5312 20.1709Z" fill="black"/>
<path d="M37.2988 11.7158L34.9934 9.41041L36.5304 7.87344L38.8358 10.1789L37.2988 11.7158Z" fill="black"/>
<path d="M41.1436 15.5596L38.8381 13.2542L40.3751 11.7172L42.6805 14.0226L41.1436 15.5596Z" fill="black"/>
<path d="M8.8623 35.5332L15.0101 41.681L13.4731 43.218L7.32534 37.0702L8.8623 35.5332Z" fill="black"/>
<path d="M15.0098 37.0693L17.3152 39.3747L15.7783 40.9116L13.4729 38.6062L15.0098 37.0693Z" fill="black"/>
<path d="M11.168 33.2275L13.4734 35.533L11.9364 37.0699L9.631 34.7645L11.168 33.2275Z" fill="black"/>
<path d="M13.4736 30.9219L19.6214 37.0697L18.0845 38.6066L11.9367 32.4588L13.4736 30.9219Z" fill="black"/>
<path d="M15.0098 9.40527L8.86197 15.5531L7.32501 14.0161L13.4728 7.86831L15.0098 9.40527Z" fill="black"/>
<path d="M17.3154 11.7109L11.1676 17.8587L9.63067 16.3218L15.7785 10.174L17.3154 11.7109Z" fill="black"/>
<path d="M19.623 14.0176L13.4753 20.1654L11.9384 18.6285L18.0861 12.4807L19.623 14.0176Z" fill="black"/>
</g>
<defs>
<clipPath id="clip0_175_385">
<rect width="50" height="50" fill="white" transform="translate(0 0.545898)"/>
</clipPath>
</defs>
</svg>
