<svg width="50" height="51" viewBox="0 0 50 51" fill="none" xmlns="http://www.w3.org/2000/svg">
<g clip-path="url(#clip0_175_385)">
<path d="M1.55469 34.2412C5.08701 43.7611 14.2506 50.5456 24.9997 50.5456C35.7488 50.5456 44.9124 43.7611 48.4447 34.2412L24.9997 32.0674L1.55469 34.2412Z" fill="#FFDA44"/>
<path d="M24.9997 0.545898C14.2506 0.545898 5.08701 7.33027 1.55469 16.8503L24.9997 19.0241L48.4447 16.8502C44.9124 7.33027 35.7488 0.545898 24.9997 0.545898Z" fill="black"/>
<path d="M1.55498 16.8506C0.550098 19.5589 0 22.4882 0 25.5462C0 28.6042 0.550098 31.5335 1.55498 34.2418H48.4451C49.45 31.5335 50 28.6042 50 25.5462C50 22.4882 49.45 19.5589 48.445 16.8506H1.55498Z" fill="#D80027"/>
</g>
<defs>
<clipPath id="clip0_175_385">
<rect width="50" height="50" fill="white" transform="translate(0 0.545898)"/>
</clipPath>
</defs>
</svg>
