<svg width="50" height="51" viewBox="0 0 50 51" fill="none" xmlns="http://www.w3.org/2000/svg">
<g clip-path="url(#clip0_175_385)">
<path d="M25 50.5459C38.8071 50.5459 50 39.353 50 25.5459C50 11.7388 38.8071 0.545898 25 0.545898C11.1929 0.545898 0 11.7388 0 25.5459C0 39.353 11.1929 50.5459 25 50.5459Z" fill="#F0F0F0"/>
<path d="M49.9997 25.5456C49.9997 14.7965 43.2153 5.63291 33.6953 2.10059V48.9907C43.2153 45.4583 49.9997 36.2947 49.9997 25.5456V25.5456Z" fill="#D80027"/>
<path d="M0 25.5456C0 36.2947 6.78447 45.4583 16.3044 48.9906V2.10059C6.78447 5.63291 0 14.7965 0 25.5456Z" fill="#0052B4"/>
</g>
<defs>
<clipPath id="clip0_175_385">
<rect width="50" height="50" fill="white" transform="translate(0 0.545898)"/>
</clipPath>
</defs>
</svg>
