<svg width="50" height="51" viewBox="0 0 50 51" fill="none" xmlns="http://www.w3.org/2000/svg">
<g clip-path="url(#clip0_175_385)">
<path d="M25 50.5459C38.8071 50.5459 50 39.353 50 25.5459C50 11.7388 38.8071 0.545898 25 0.545898C11.1929 0.545898 0 11.7388 0 25.5459C0 39.353 11.1929 50.5459 25 50.5459Z" fill="#F0F0F0"/>
<path d="M48.445 16.8506H1.55498C0.550098 19.5589 0 22.4882 0 25.5462C0 28.6042 0.550098 31.5335 1.55498 34.2418H48.4451C49.45 31.5335 50 28.6042 50 25.5462C50 22.4882 49.45 19.5589 48.445 16.8506Z" fill="#D80027"/>
<path d="M25.0001 0.545898C17.4229 0.545898 10.6335 3.91738 6.04883 9.2415H43.9513C39.3667 3.91738 32.5773 0.545898 25.0001 0.545898V0.545898Z" fill="#0052B4"/>
<path d="M43.9514 41.8506H6.04883C10.6335 47.1747 17.4229 50.5462 25.0001 50.5462C32.5773 50.5462 39.3667 47.1747 43.9514 41.8506Z" fill="#0052B4"/>
</g>
<defs>
<clipPath id="clip0_175_385">
<rect width="50" height="50" fill="white" transform="translate(0 0.545898)"/>
</clipPath>
</defs>
</svg>
