<svg width="50" height="51" viewBox="0 0 50 51" fill="none" xmlns="http://www.w3.org/2000/svg">
<g clip-path="url(#clip0_175_385)">
<path d="M33.696 2.10088C30.9877 1.096 28.0584 0.545898 25.0004 0.545898C21.9424 0.545898 19.0131 1.096 16.3048 2.10088L14.1309 25.5459L16.3048 48.9909C19.0131 49.9959 21.9424 50.5459 25.0004 50.5459C28.0584 50.5459 30.9877 49.9959 33.696 48.9909L35.8699 25.5459L33.696 2.10088Z" fill="#FFDA44"/>
<path d="M49.9997 25.5455C49.9997 14.7965 43.2153 5.63281 33.6953 2.10059V48.9907C43.2153 45.4582 49.9997 36.2947 49.9997 25.5455V25.5455Z" fill="#D80027"/>
<path d="M0 25.5455C0 36.2947 6.78437 45.4582 16.3044 48.9906V2.10059C6.78437 5.63281 0 14.7965 0 25.5455V25.5455Z" fill="black"/>
</g>
<defs>
<clipPath id="clip0_175_385">
<rect width="50" height="50" fill="white" transform="translate(0 0.545898)"/>
</clipPath>
</defs>
</svg>
