<svg width="50" height="51" viewBox="0 0 50 51" fill="none" xmlns="http://www.w3.org/2000/svg">
<g clip-path="url(#clip0_175_385)">
<path d="M25 50.5459C38.8071 50.5459 50 39.353 50 25.5459C50 11.7388 38.8071 0.545898 25 0.545898C11.1929 0.545898 0 11.7388 0 25.5459C0 39.353 11.1929 50.5459 25 50.5459Z" fill="#D80027"/>
<path d="M39.774 21.0621H28.4875L24.9998 10.3281L21.5121 21.0621H10.2256L19.3565 27.6961L15.8687 38.4304L24.9998 31.7963L34.1309 38.4305L30.6431 27.6962L39.774 21.0621ZM21.9121 26.8657L23.0915 23.2359H26.908L28.0875 26.8657V26.8658L24.9998 29.1091L21.9122 26.8658L21.9121 26.8657ZM26.2018 21.0621H23.7979L24.9998 17.3629L26.2018 21.0621ZM29.9366 25.5223L29.1937 23.236H33.0833L29.9366 25.5223ZM20.8058 23.236L20.0629 25.5223L16.9161 23.236H20.8058ZM20.0038 32.739L21.2058 29.0398L23.1506 30.4527L20.0038 32.739ZM26.849 30.4528L28.7938 29.0399L29.9958 32.7391L26.849 30.4528Z" fill="#FFDA44"/>
</g>
<defs>
<clipPath id="clip0_175_385">
<rect width="50" height="50" fill="white" transform="translate(0 0.545898)"/>
</clipPath>
</defs>
</svg>
