<svg width="50" height="51" viewBox="0 0 50 51" fill="none" xmlns="http://www.w3.org/2000/svg">
<g clip-path="url(#clip0_175_385)">
<path d="M25 50.5459C38.8071 50.5459 50 39.353 50 25.5459C50 11.7388 38.8071 0.545898 25 0.545898C11.1929 0.545898 0 11.7388 0 25.5459C0 39.353 11.1929 50.5459 25 50.5459Z" fill="#F0F0F0"/>
<path d="M33.1198 19.0245H29.8489C29.876 19.384 29.8913 19.7467 29.8913 20.1114C29.8913 22.5298 29.2868 24.8738 28.233 26.5424C27.9079 27.057 27.3616 27.7838 26.6304 28.274V19.0244H23.3695V28.274C22.6384 27.7838 22.092 27.0571 21.7669 26.5424C20.713 24.8738 20.1086 22.5298 20.1086 20.1114C20.1086 19.7467 20.124 19.3839 20.151 19.0245H16.8801C16.8591 19.3822 16.8477 19.7445 16.8477 20.1114C16.8477 26.8161 20.4285 32.068 24.9998 32.068C29.5711 32.068 33.152 26.8161 33.152 20.1114C33.1522 19.7445 33.1407 19.3822 33.1198 19.0245V19.0245Z" fill="#D80027"/>
<path d="M10.3259 12.5024H13.5867V14.6764H16.8476V12.5024H20.1084V14.6764H23.3692V12.5024H26.6301V14.6764H29.8909V12.5024H33.1518V14.6764H36.4126V12.5024H39.6734V14.6764H47.5188C43.4754 6.31397 34.9112 0.545898 24.9998 0.545898C15.0884 0.545898 6.52422 6.31397 2.48047 14.6764H10.3259V12.5024Z" fill="#6DA544"/>
<path d="M39.6737 36.415V38.589H36.4129V36.415H33.1521V38.589H29.8912V36.415H26.6304V38.589H23.3695V36.415H20.1087V38.589H16.8479V36.415H13.5867V38.589H10.3259V36.415H2.48047C6.52422 44.7774 15.0883 50.5455 24.9998 50.5455C34.9113 50.5455 43.4754 44.7774 47.5191 36.415H39.6737Z" fill="#D80027"/>
</g>
<defs>
<clipPath id="clip0_175_385">
<rect width="50" height="50" fill="white" transform="translate(0 0.545898)"/>
</clipPath>
</defs>
</svg>
