<svg width="50" height="51" viewBox="0 0 50 51" fill="none" xmlns="http://www.w3.org/2000/svg">
<g clip-path="url(#clip0_175_385)">
<path d="M50 25.5463C50 22.4883 49.4499 19.5589 48.445 16.8507L25 15.7637L1.55498 16.8506C0.550098 19.5589 0 22.4883 0 25.5463C0 28.6043 0.550098 31.5337 1.55498 34.2419L25 35.3289L48.445 34.242C49.4499 31.5337 50 28.6043 50 25.5463Z" fill="#F0F0F0"/>
<path d="M24.9997 50.5456C35.7488 50.5456 44.9124 43.7612 48.4447 34.2412H1.55469C5.08701 43.7612 14.2506 50.5456 24.9997 50.5456Z" fill="#0052B4"/>
<path d="M1.55469 16.8503H48.4448C44.9124 7.33027 35.7488 0.545898 24.9997 0.545898C14.2506 0.545898 5.08701 7.33027 1.55469 16.8503V16.8503Z" fill="#D80027"/>
<path d="M31.5217 17.9369H27.1738L27.8985 12.502L30.797 10.3281L33.6955 12.502V16.8499L31.5217 17.9369Z" fill="#338AF3"/>
<path d="M18.4785 17.9369H22.8264L22.1017 12.502L19.2031 10.3281L16.3047 12.502V16.8499L18.4785 17.9369Z" fill="#338AF3"/>
<path d="M27.8988 17.9369H22.1016V12.502L25.0002 10.3281L27.8988 12.502V17.9369Z" fill="#0052B4"/>
<path d="M16.3047 16.8506V28.807C16.3047 31.654 17.6799 34.1858 19.801 35.773L21.3228 35.3923L23.2431 37.3241C23.8109 37.4411 24.3985 37.5027 25.0004 37.5027C25.599 37.5027 26.1837 37.4419 26.7485 37.3261L28.9406 35.5009L30.1996 35.7695C32.3198 34.1824 33.696 31.6532 33.696 28.807V16.8506H16.3047Z" fill="#F0F0F0"/>
<path d="M16.3047 16.8506H19.7829V20.3288H16.3047V16.8506Z" fill="#D80027"/>
<path d="M23.2607 16.8506H26.739V20.3288H23.2607V16.8506Z" fill="#D80027"/>
<path d="M30.2178 16.8506H33.696V20.3288H30.2178V16.8506Z" fill="#D80027"/>
<path d="M19.7832 20.3291H23.2614V23.8073H19.7832V20.3291Z" fill="#D80027"/>
<path d="M26.7393 20.3291H30.2175V23.8073H26.7393V20.3291Z" fill="#D80027"/>
<path d="M16.3047 23.8057H19.7829V27.2839H16.3047V23.8057Z" fill="#D80027"/>
<path d="M19.7832 27.2842H23.2614V30.7624H19.7832V27.2842Z" fill="#D80027"/>
<path d="M23.2607 23.8057H26.739V27.2839H23.2607V23.8057Z" fill="#D80027"/>
<path d="M30.2178 23.8057H33.696V27.2839H30.2178V23.8057Z" fill="#D80027"/>
<path d="M26.7393 27.2842H30.2175V30.7624H26.7393V27.2842Z" fill="#D80027"/>
<path d="M23.2607 30.7627H26.739V34.2409H23.2607V30.7627Z" fill="#D80027"/>
<path d="M19.7831 30.7627H16.5293C16.8277 32.0557 17.4145 33.2388 18.2189 34.2409H19.7831V30.7627Z" fill="#D80027"/>
<path d="M30.2178 34.2409H31.7818C32.5865 33.2388 33.173 32.0556 33.4715 30.7627H30.2178V34.2409Z" fill="#D80027"/>
<path d="M19.7832 34.2412V35.7589C20.7948 36.5201 21.977 37.0659 23.2614 37.3278V34.2412H19.7832Z" fill="#D80027"/>
<path d="M26.7393 34.2412V37.3278C28.0237 37.0661 29.2059 36.5201 30.2175 35.7589V34.2412H26.7393Z" fill="#D80027"/>
</g>
<defs>
<clipPath id="clip0_175_385">
<rect width="50" height="50" fill="white" transform="translate(0 0.545898)"/>
</clipPath>
</defs>
</svg>
