<svg width="50" height="51" viewBox="0 0 50 51" fill="none" xmlns="http://www.w3.org/2000/svg">
<g clip-path="url(#clip0_175_385)">
<path d="M25 50.5459C38.8071 50.5459 50 39.353 50 25.5459C50 11.7388 38.8071 0.545898 25 0.545898C11.1929 0.545898 0 11.7388 0 25.5459C0 39.353 11.1929 50.5459 25 50.5459Z" fill="#F0F0F0"/>
<path d="M49.7884 22.2851H28.261H28.2609V0.75752C27.1935 0.618555 26.1052 0.545898 25 0.545898C23.8948 0.545898 22.8065 0.618555 21.7392 0.75752V22.2849V22.285H0.211621C0.0726563 23.3524 0 24.4405 0 25.5459C0 26.6513 0.0726563 27.7394 0.211621 28.8067H21.739H21.7391V50.3343C22.8065 50.4732 23.8948 50.5459 25 50.5459C26.1052 50.5459 27.1935 50.4733 28.2608 50.3343V28.8069V28.8068H49.7884C49.9273 27.7394 50 26.6513 50 25.5459C50 24.4405 49.9273 23.3524 49.7884 22.2851V22.2851Z" fill="#D80027"/>
</g>
<defs>
<clipPath id="clip0_175_385">
<rect width="50" height="50" fill="white" transform="translate(0 0.545898)"/>
</clipPath>
</defs>
</svg>
